<svg width="200" height="26" viewBox="0 0 200 26" fill="none" xmlns="http://www.w3.org/2000/svg">
<rect width="200" height="25.3012" fill="#3C3C3B"/>
<path fill-rule="evenodd" clip-rule="evenodd" d="M47.259 18.6228C48.7853 19.7286 50.878 20.4152 52.7212 20.4152C56.1652 20.4152 58.1402 18.873 58.1402 16.1838C58.1402 13.5291 56.5937 12.6535 53.3123 11.411C51.2191 10.6022 50.8218 10.1354 50.8218 9.55701C50.8218 8.84322 51.4489 8.44998 52.5873 8.44998C53.8567 8.44998 54.9822 8.8173 56.13 9.60542L56.2718 9.70332L57.6287 7.35637L57.5139 7.27515C56.1271 6.28705 54.3603 5.72031 52.6676 5.72031C49.6212 5.72031 47.7286 7.22039 47.7286 9.63587C47.7286 11.8073 48.7525 12.8968 51.9439 14.1196C53.9596 14.8777 55.1006 15.3518 55.1006 16.2887C55.1006 17.1978 54.2913 17.6585 52.6939 17.6585C51.3817 17.6585 49.9618 17.1825 48.6976 16.319L48.5595 16.2244L47.143 18.539L47.259 18.6228Z" fill="white"/>
<path fill-rule="evenodd" clip-rule="evenodd" d="M67.4927 17.6057C66.2506 17.6057 65.0111 16.7269 64.3657 15.8947V10.1899C64.8047 9.65776 65.9092 8.52879 67.3861 8.52879C69.4007 8.52879 70.3802 10.1123 70.3802 13.3701C70.3802 16.1806 69.4088 17.6057 67.4927 17.6057ZM61.3526 6.00981V25.3012L64.3922 23.7456V19.0574C65.1381 19.7334 66.3673 20.4151 67.7606 20.4151C70.384 20.4151 73.447 18.5495 73.447 13.2912C73.447 8.47987 71.4226 5.72028 67.8935 5.72028C66.6575 5.72028 65.5375 6.17117 64.3922 7.13425V6.00981H61.3526Z" fill="white"/>
<path fill-rule="evenodd" clip-rule="evenodd" d="M78.8439 15.5265C78.8439 14.3569 79.8888 13.6304 81.5705 13.6304C82.8466 13.6304 83.8188 13.8047 84.6182 14.1767V16.0009C83.9845 16.8324 82.7503 17.6586 81.3837 17.6586C79.7459 17.6586 78.8439 16.9011 78.8439 15.5265ZM75.9111 15.6053C75.9111 17.8241 77.2252 20.4151 80.9294 20.4151C82.2332 20.4151 83.5586 19.8893 84.6182 18.9627V20.1256H87.6313V10.5037C87.6313 7.46382 85.6557 5.72025 82.2115 5.72025C80.2822 5.72025 78.7281 6.1202 77.3208 6.97938L77.1976 7.05535L78.4064 9.37673L78.5495 9.29787C79.612 8.71154 80.7168 8.4501 82.1316 8.4501C83.7348 8.4501 84.6182 9.22625 84.6182 10.6353V11.4276C83.8367 11.1301 82.8398 10.9796 81.6508 10.9796C78.0568 10.9796 75.9111 12.7087 75.9111 15.6053Z" fill="white"/>
<path fill-rule="evenodd" clip-rule="evenodd" d="M91.2708 20.1256H94.3375V12.0818C94.3375 9.8926 95.2584 8.68676 96.9309 8.68676C97.7287 8.68676 98.3371 8.83053 98.9645 9.16794L99.1398 9.26149L99.9442 6.38713L99.8492 6.32477C99.2118 5.9065 98.4517 5.72031 97.3847 5.72031C96.2096 5.72031 95.0817 6.21345 94.3375 7.03112V6.00966H91.2708V20.1256Z" fill="white"/>
<path fill-rule="evenodd" clip-rule="evenodd" d="M118.833 15.5265C118.833 14.3569 119.878 13.6304 121.56 13.6304C122.836 13.6304 123.808 13.8047 124.607 14.1767V16.0009C123.973 16.8324 122.739 17.6586 121.373 17.6586C119.735 17.6586 118.833 16.9011 118.833 15.5265ZM115.9 15.6053C115.9 17.8241 117.214 20.4151 120.919 20.4151C122.222 20.4151 123.548 19.8893 124.607 18.9627V20.1256H127.62V10.5037C127.62 7.46382 125.645 5.72025 122.201 5.72025C120.271 5.72025 118.717 6.1202 117.31 6.97938L117.187 7.05535L118.395 9.37673L118.538 9.29787C119.601 8.71154 120.706 8.4501 122.121 8.4501C123.724 8.4501 124.607 9.22625 124.607 10.6353V11.4276C123.826 11.1301 122.829 10.9796 121.64 10.9796C118.046 10.9796 115.9 12.7087 115.9 15.6053Z" fill="white"/>
<path fill-rule="evenodd" clip-rule="evenodd" d="M133.712 12.7649C133.712 9.95384 134.684 8.52881 136.6 8.52881C137.842 8.52881 139.081 9.4083 139.727 10.2403V15.9446C139.288 16.4769 138.184 17.6055 136.706 17.6055C134.692 17.6055 133.712 16.0222 133.712 12.7649ZM130.645 12.844C130.645 17.6554 132.67 20.4151 136.199 20.4151C137.435 20.4151 138.555 19.9641 139.7 19.001V20.1256H142.74V0.544678L139.7 2.10006V7.07715C138.954 6.40126 137.726 5.72029 136.332 5.72029C133.708 5.72029 130.645 7.58588 130.645 12.844Z" fill="white"/>
<path fill-rule="evenodd" clip-rule="evenodd" d="M155.073 11.6368H148.905C149.176 9.597 150.247 8.47674 151.932 8.47674C154.258 8.47674 154.931 10.1567 155.073 11.6368ZM145.818 13.0807C145.818 17.3986 148.377 20.4151 152.039 20.4151C154.066 20.4151 155.636 19.8244 156.983 18.5573L157.095 18.4517L155.264 16.5011L155.15 16.5842C154.135 17.3271 153.225 17.6586 152.199 17.6586C150.389 17.6586 149.147 16.3633 148.852 14.1828H158.086L158.114 13.8859L158.115 13.8767C158.142 13.5949 158.18 13.2114 158.18 12.7912C158.18 8.49558 155.801 5.72021 152.119 5.72021C148.232 5.72021 145.818 8.54054 145.818 13.0807Z" fill="white"/>
<path fill-rule="evenodd" clip-rule="evenodd" d="M177.577 20.1256H180.644V12.055C180.644 7.85169 178.974 5.72031 175.679 5.72031C173.532 5.72031 172.391 6.47706 171.4 7.63068C170.587 6.34525 169.32 5.72031 167.532 5.72031C166.242 5.72031 165.108 6.19169 164.352 7.02912V6.00966H161.285V20.1256H164.352V11.8972C164.352 9.66198 165.206 8.52885 166.891 8.52885C168.695 8.52885 169.431 9.5813 169.431 12.1605V20.1256H172.498V11.8972C172.498 9.66198 173.352 8.52885 175.038 8.52885C176.841 8.52885 177.577 9.5813 177.577 12.1605V20.1256Z" fill="white"/>
<path fill-rule="evenodd" clip-rule="evenodd" d="M186.188 24.9905H189.44L196.609 6.00964H193.358L190.945 12.9234C190.675 13.6675 190.299 14.8448 189.85 16.3507C189.603 15.4555 189.141 14.0286 188.759 12.8737L186.426 6.00964H183.067L188.28 19.7061L186.188 24.9905Z" fill="white"/>
<path fill-rule="evenodd" clip-rule="evenodd" d="M110.9 20.4151H114.239L109.956 11.1022L113.643 6.29915H110.12L107.161 10.3871C106.789 10.8971 106.279 11.6555 105.907 12.2098L105.901 12.2188C105.903 12.0844 105.905 11.9404 105.906 11.791C105.908 11.6679 105.909 11.5412 105.911 11.4129C105.918 10.8406 105.926 10.2367 105.926 9.79374V2.12686L102.859 0.543915V20.4151H105.926V16.2359L107.869 13.7004L110.9 20.4151Z" fill="white"/>
<path fill-rule="evenodd" clip-rule="evenodd" d="M197.05 20.0938H200V17.1893H197.05V20.0938Z" fill="#17E5A0"/>
<path fill-rule="evenodd" clip-rule="evenodd" d="M33.2377 10.5985L41.2763 7.62753L20.6381 0L0 7.62753L20.6381 15.2553L27.3054 12.791L33.2377 13.6872V10.5985Z" fill="white"/>
<path fill-rule="evenodd" clip-rule="evenodd" d="M20.6382 17.5818L8.05354 12.9307V18.5628L20.6382 23.2139L33.2377 18.5574V15.7082L27.8927 14.9005L20.6382 17.5818Z" fill="#17E5A0"/>
</svg>
