<svg width="166" height="21" viewBox="0 0 166 21" fill="none" xmlns="http://www.w3.org/2000/svg">
<path fill-rule="evenodd" clip-rule="evenodd" d="M39.225 15.4571C40.4917 16.3749 42.2287 16.9448 43.7585 16.9448C46.6171 16.9448 48.2564 15.6648 48.2564 13.4327C48.2564 11.2294 46.9727 10.5026 44.2492 9.47132C42.5118 8.80003 42.1821 8.41254 42.1821 7.93251C42.1821 7.34007 42.7025 7.01368 43.6474 7.01368C44.701 7.01368 45.6352 7.31855 46.5879 7.97269L46.7056 8.05395L47.8317 6.10598L47.7365 6.03857C46.5854 5.21845 45.119 4.74805 43.7141 4.74805C41.1855 4.74805 39.6147 5.99312 39.6147 7.99797C39.6147 9.80027 40.4645 10.7045 43.1134 11.7195C44.7864 12.3487 45.7335 12.7422 45.7335 13.5198C45.7335 14.2743 45.0617 14.6567 43.7359 14.6567C42.6467 14.6567 41.4683 14.2617 40.419 13.545L40.3044 13.4664L39.1287 15.3876L39.225 15.4571Z" fill="white"/>
<path fill-rule="evenodd" clip-rule="evenodd" d="M56.0189 14.6129C54.988 14.6129 53.9591 13.8835 53.4234 13.1928V8.45782C53.7878 8.01616 54.7046 7.07912 55.9304 7.07912C57.6025 7.07912 58.4155 8.39341 58.4155 11.0974C58.4155 13.4301 57.6093 14.6129 56.0189 14.6129ZM50.9226 4.98836V21.0002L53.4455 19.7091V15.8178C54.0645 16.379 55.0848 16.9448 56.2412 16.9448C58.4186 16.9448 60.9609 15.3963 60.9609 11.032C60.9609 7.03851 59.2807 4.74805 56.3516 4.74805C55.3256 4.74805 54.396 5.12229 53.4455 5.92164V4.98836H50.9226Z" fill="white"/>
<path fill-rule="evenodd" clip-rule="evenodd" d="M65.4403 12.8872C65.4403 11.9165 66.3076 11.3135 67.7034 11.3135C68.7626 11.3135 69.5695 11.4581 70.233 11.7669V13.281C69.707 13.9711 68.6827 14.6569 67.5484 14.6569C66.189 14.6569 65.4403 14.0282 65.4403 12.8872ZM63.0061 12.9527C63.0061 14.7943 64.0968 16.9448 67.1713 16.9448C68.2535 16.9448 69.3535 16.5084 70.233 15.7393V16.7045H72.7339V8.71832C72.7339 6.19522 71.0941 4.74805 68.2354 4.74805C66.6341 4.74805 65.3442 5.08001 64.1761 5.79313L64.0739 5.85618L65.0772 7.78293L65.1959 7.71747C66.0779 7.23082 66.9948 7.01383 68.1691 7.01383C69.4998 7.01383 70.233 7.65803 70.233 8.82757V9.48516C69.5843 9.23823 68.757 9.11333 67.77 9.11333C64.7871 9.11333 63.0061 10.5485 63.0061 12.9527Z" fill="white"/>
<path fill-rule="evenodd" clip-rule="evenodd" d="M75.7549 16.7045H78.3002V10.0281C78.3002 8.21105 79.0646 7.2102 80.4528 7.2102C81.1149 7.2102 81.6199 7.32954 82.1407 7.60958L82.2862 7.68723L82.9538 5.30151L82.8749 5.24975C82.3459 4.90259 81.715 4.74805 80.8294 4.74805C79.8541 4.74805 78.9179 5.15735 78.3002 5.83602V4.98821H75.7549V16.7045Z" fill="white"/>
<path fill-rule="evenodd" clip-rule="evenodd" d="M98.6315 12.8872C98.6315 11.9165 99.4987 11.3135 100.895 11.3135C101.954 11.3135 102.76 11.4581 103.424 11.7669V13.281C102.898 13.9711 101.874 14.6569 100.739 14.6569C99.3801 14.6569 98.6315 14.0282 98.6315 12.8872ZM96.1973 12.9527C96.1973 14.7943 97.288 16.9448 100.362 16.9448C101.445 16.9448 102.545 16.5084 103.424 15.7393V16.7045H105.925V8.71832C105.925 6.19522 104.285 4.74805 101.427 4.74805C99.8252 4.74805 98.5354 5.08001 97.3673 5.79313L97.2649 5.85618L98.2682 7.78293L98.3869 7.71747C99.269 7.23082 100.186 7.01383 101.36 7.01383C102.691 7.01383 103.424 7.65803 103.424 8.82757V9.48516C102.775 9.23823 101.948 9.11333 100.961 9.11333C97.9782 9.11333 96.1973 10.5485 96.1973 12.9527Z" fill="white"/>
<path fill-rule="evenodd" clip-rule="evenodd" d="M110.981 10.595C110.981 8.26175 111.787 7.07898 113.378 7.07898C114.408 7.07898 115.437 7.80896 115.973 8.49951V13.2341C115.609 13.6759 114.692 14.6126 113.466 14.6126C111.794 14.6126 110.981 13.2985 110.981 10.595ZM108.436 10.6606C108.436 14.654 110.116 16.9446 113.045 16.9446C114.071 16.9446 115 16.5702 115.951 15.7709V16.7043H118.474V0.452148L115.951 1.74312V5.8741C115.332 5.31311 114.312 4.74791 113.155 4.74791C110.978 4.74791 108.436 6.29635 108.436 10.6606Z" fill="white"/>
<path fill-rule="evenodd" clip-rule="evenodd" d="M128.711 9.65883H123.591C123.816 7.96578 124.705 7.03596 126.104 7.03596C128.034 7.03596 128.593 8.43031 128.711 9.65883ZM121.029 10.8572C121.029 14.4411 123.153 16.9448 126.192 16.9448C127.875 16.9448 129.178 16.4545 130.296 15.4028L130.389 15.3152L128.869 13.6962L128.774 13.7651C127.932 14.3818 127.177 14.6569 126.325 14.6569C124.823 14.6569 123.792 13.5818 123.547 11.772H131.211L131.235 11.5255L131.235 11.5179C131.258 11.284 131.289 10.9657 131.289 10.6169C131.289 7.0516 129.315 4.74805 126.259 4.74805C123.033 4.74805 121.029 7.08892 121.029 10.8572Z" fill="white"/>
<path fill-rule="evenodd" clip-rule="evenodd" d="M147.389 16.7045H149.935V10.0058C149.935 6.51709 148.548 4.74805 145.813 4.74805C144.031 4.74805 143.085 5.37615 142.262 6.33366C141.588 5.26675 140.536 4.74805 139.052 4.74805C137.981 4.74805 137.04 5.1393 136.412 5.83436V4.98821H133.866V16.7045H136.412V9.87491C136.412 8.01964 137.121 7.07914 138.52 7.07914C140.017 7.07914 140.628 7.95267 140.628 10.0934V16.7045H143.173V9.87491C143.173 8.01964 143.883 7.07914 145.281 7.07914C146.778 7.07914 147.389 7.95267 147.389 10.0934V16.7045Z" fill="white"/>
<path fill-rule="evenodd" clip-rule="evenodd" d="M154.536 20.7424H157.235L163.185 4.98828H160.487L158.484 10.7267C158.26 11.3443 157.948 12.3215 157.576 13.5714C157.37 12.8283 156.987 11.644 156.67 10.6855L154.733 4.98828H151.945L156.272 16.3563L154.536 20.7424Z" fill="white"/>
<path fill-rule="evenodd" clip-rule="evenodd" d="M92.0471 16.9443H94.8182L91.2637 9.21454L94.3237 5.22802H91.3992L88.9438 8.62105C88.6345 9.04435 88.2117 9.67381 87.9031 10.1338L87.898 10.1413C87.8992 10.0298 87.9006 9.91028 87.9021 9.78624C87.9033 9.6841 87.9045 9.57888 87.9057 9.47246C87.9118 8.9974 87.9181 8.49615 87.9181 8.12852V1.76501L85.3726 0.451172V16.9443H87.9181V13.4755L89.5312 11.3711L92.0471 16.9443Z" fill="white"/>
<path fill-rule="evenodd" clip-rule="evenodd" d="M163.552 16.6783H166V14.2676H163.552V16.6783Z" fill="#17E5A0"/>
<path fill-rule="evenodd" clip-rule="evenodd" d="M27.5873 8.79677L34.2593 6.33085L17.1297 0L0 6.33085L17.1297 12.6619L22.6635 10.6165L27.5873 11.3604V8.79677Z" fill="white"/>
<path fill-rule="evenodd" clip-rule="evenodd" d="M17.1296 14.5928L6.68433 10.7324V15.4071L17.1296 19.2675L27.5872 15.4026V13.0378L23.1508 12.3674L17.1296 14.5928Z" fill="#17E5A0"/>
</svg>
