<svg width="166" height="21" viewBox="0 0 166 21" fill="none" xmlns="http://www.w3.org/2000/svg">
<path fill-rule="evenodd" clip-rule="evenodd" d="M39.225 15.4571C40.4917 16.3749 42.2287 16.9448 43.7585 16.9448C46.6171 16.9448 48.2564 15.6648 48.2564 13.4327C48.2564 11.2294 46.9728 10.5026 44.2492 9.47132C42.5118 8.80003 42.1821 8.41254 42.1821 7.93251C42.1821 7.34007 42.7025 7.01368 43.6474 7.01368C44.701 7.01368 45.6352 7.31855 46.5879 7.97269L46.7056 8.05395L47.8318 6.10598L47.7365 6.03857C46.5854 5.21845 45.119 4.74805 43.7141 4.74805C41.1855 4.74805 39.6147 5.99312 39.6147 7.99797C39.6147 9.80027 40.4645 10.7045 43.1134 11.7195C44.7864 12.3487 45.7335 12.7422 45.7335 13.5198C45.7335 14.2743 45.0617 14.6567 43.7359 14.6567C42.6467 14.6567 41.4683 14.2617 40.419 13.545L40.3044 13.4664L39.1287 15.3876L39.225 15.4571Z" fill="#3C3C3B"/>
<path fill-rule="evenodd" clip-rule="evenodd" d="M56.0189 14.6129C54.988 14.6129 53.9592 13.8836 53.4235 13.1928V8.45784C53.7878 8.01618 54.7046 7.07914 55.9304 7.07914C57.6026 7.07914 58.4156 8.39343 58.4156 11.0974C58.4156 13.4302 57.6093 14.6129 56.0189 14.6129ZM50.9226 4.98836V21.0002L53.4455 19.7091V15.8178C54.0645 16.379 55.0848 16.9448 56.2412 16.9448C58.4186 16.9448 60.9609 15.3963 60.9609 11.032C60.9609 7.03851 59.2807 4.74805 56.3516 4.74805C55.3256 4.74805 54.396 5.12229 53.4455 5.92164V4.98836H50.9226Z" fill="#3C3C3B"/>
<path fill-rule="evenodd" clip-rule="evenodd" d="M65.4403 12.8867C65.4403 11.916 66.3076 11.313 67.7034 11.313C68.7626 11.313 69.5695 11.4576 70.233 11.7664V13.2805C69.7071 13.9706 68.6827 14.6564 67.5484 14.6564C66.189 14.6564 65.4403 14.0277 65.4403 12.8867ZM63.0061 12.9522C63.0061 14.7938 64.0968 16.9443 67.1713 16.9443C68.2535 16.9443 69.3535 16.5079 70.233 15.7388V16.704H72.7339V8.71783C72.7339 6.19473 71.0941 4.74756 68.2355 4.74756C66.6341 4.74756 65.3442 5.07952 64.1761 5.79264L64.0739 5.8557L65.0772 7.78244L65.1959 7.71698C66.0779 7.23033 66.9948 7.01334 68.1691 7.01334C69.4998 7.01334 70.233 7.65755 70.233 8.82708V9.48468C69.5843 9.23774 68.757 9.11284 67.77 9.11284C64.7871 9.11284 63.0061 10.548 63.0061 12.9522Z" fill="#3C3C3B"/>
<path fill-rule="evenodd" clip-rule="evenodd" d="M75.7549 16.7045H78.3002V10.0281C78.3002 8.21105 79.0646 7.2102 80.4528 7.2102C81.1149 7.2102 81.6199 7.32954 82.1407 7.60958L82.2862 7.68723L82.9538 5.30151L82.8749 5.24975C82.3459 4.90259 81.715 4.74805 80.8294 4.74805C79.8541 4.74805 78.9179 5.15735 78.3002 5.83602V4.98821H75.7549V16.7045Z" fill="#3C3C3B"/>
<path fill-rule="evenodd" clip-rule="evenodd" d="M98.6315 12.8867C98.6315 11.916 99.4987 11.313 100.895 11.313C101.954 11.313 102.761 11.4576 103.424 11.7664V13.2805C102.898 13.9706 101.874 14.6564 100.739 14.6564C99.3801 14.6564 98.6315 14.0277 98.6315 12.8867ZM96.1973 12.9522C96.1973 14.7938 97.288 16.9443 100.362 16.9443C101.445 16.9443 102.545 16.5079 103.424 15.7388V16.704H105.925V8.71783C105.925 6.19473 104.285 4.74756 101.427 4.74756C99.8252 4.74756 98.5354 5.07952 97.3673 5.79264L97.2649 5.8557L98.2682 7.78244L98.3869 7.71698C99.269 7.23033 100.186 7.01334 101.36 7.01334C102.691 7.01334 103.424 7.65755 103.424 8.82708V9.48468C102.775 9.23774 101.948 9.11284 100.961 9.11284C97.9782 9.11284 96.1973 10.548 96.1973 12.9522Z" fill="#3C3C3B"/>
<path fill-rule="evenodd" clip-rule="evenodd" d="M110.981 10.595C110.981 8.26177 111.787 7.079 113.378 7.079C114.408 7.079 115.437 7.80898 115.973 8.49953V13.2341C115.609 13.6759 114.692 14.6126 113.466 14.6126C111.794 14.6126 110.981 13.2985 110.981 10.595ZM108.436 10.6606C108.436 14.654 110.116 16.9446 113.045 16.9446C114.071 16.9446 115 16.5702 115.951 15.7709V16.7043H118.474V0.452148L115.951 1.74312V5.8741C115.332 5.31311 114.312 4.74791 113.155 4.74791C110.978 4.74791 108.436 6.29635 108.436 10.6606Z" fill="#3C3C3B"/>
<path fill-rule="evenodd" clip-rule="evenodd" d="M128.711 9.65833H123.591C123.816 7.96528 124.705 7.03546 126.104 7.03546C128.034 7.03546 128.593 8.42981 128.711 9.65833ZM121.029 10.8568C121.029 14.4406 123.153 16.9443 126.192 16.9443C127.874 16.9443 129.178 16.454 130.296 15.4023L130.389 15.3147L128.869 13.6957L128.774 13.7646C127.932 14.3813 127.177 14.6564 126.325 14.6564C124.823 14.6564 123.792 13.5814 123.547 11.7715H131.211L131.235 11.525L131.235 11.5174C131.258 11.2835 131.289 10.9652 131.289 10.6164C131.289 7.05111 129.315 4.74756 126.259 4.74756C123.033 4.74756 121.029 7.08843 121.029 10.8568Z" fill="#3C3C3B"/>
<path fill-rule="evenodd" clip-rule="evenodd" d="M147.389 16.7045H149.935V10.0058C149.935 6.51709 148.548 4.74805 145.813 4.74805C144.031 4.74805 143.085 5.37615 142.262 6.33366C141.588 5.26675 140.536 4.74805 139.052 4.74805C137.981 4.74805 137.04 5.1393 136.412 5.83436V4.98821H133.866V16.7045H136.412V9.87491C136.412 8.01964 137.121 7.07914 138.52 7.07914C140.017 7.07914 140.628 7.95267 140.628 10.0934V16.7045H143.173V9.87491C143.173 8.01964 143.882 7.07914 145.281 7.07914C146.778 7.07914 147.389 7.95267 147.389 10.0934V16.7045Z" fill="#3C3C3B"/>
<path fill-rule="evenodd" clip-rule="evenodd" d="M154.536 20.7419H157.235L163.185 4.98779H160.487L158.484 10.7262C158.26 11.3438 157.948 12.321 157.576 13.5709C157.37 12.8278 156.987 11.6435 156.67 10.685L154.733 4.98779H151.945L156.272 16.3558L154.536 20.7419Z" fill="#3C3C3B"/>
<path fill-rule="evenodd" clip-rule="evenodd" d="M92.0471 16.9447H94.8182L91.2637 9.21503L94.3237 5.2285H91.3992L88.9438 8.62153C88.6345 9.04483 88.2117 9.67429 87.9031 10.1343L87.898 10.1418C87.8992 10.0303 87.9006 9.91077 87.9021 9.78673C87.9033 9.68459 87.9045 9.57937 87.9057 9.47295C87.9118 8.99788 87.9181 8.49663 87.9181 8.12901V1.7655L85.3726 0.45166V16.9447H87.9181V13.476L89.5312 11.3716L92.0471 16.9447Z" fill="#3C3C3B"/>
<path fill-rule="evenodd" clip-rule="evenodd" d="M163.552 16.6778H166V14.2671H163.552V16.6778Z" fill="#4B27E0"/>
<path fill-rule="evenodd" clip-rule="evenodd" d="M27.5873 8.79677L34.2593 6.33085L17.1297 0L0 6.33085L17.1297 12.6619L22.6635 10.6165L27.5873 11.3604V8.79677Z" fill="#3C3C3B"/>
<path fill-rule="evenodd" clip-rule="evenodd" d="M17.1296 14.5928L6.68433 10.7324V15.4071L17.1296 19.2675L27.5872 15.4026V13.0378L23.1508 12.3674L17.1296 14.5928Z" fill="#4B27E0"/>
</svg>
